<svg width="477" height="90" viewBox="0 0 477 90" fill="none" xmlns="http://www.w3.org/2000/svg">
<g clip-path="url(#clip0)">
<path d="M36.7338 18.6923H53.9765L39.6321 88.9999H22.3894L36.7338 18.6923Z" fill="white"/>
<path d="M62.0337 18.6923H79.2764L68.1001 73.7797H50.8533L62.0337 18.6923Z" fill="white"/>
<path d="M11.1804 18.6923H28.4231L17.2468 73.7797H0L11.1804 18.6923Z" fill="white"/>
</g>
<path d="M100.871 44.2778C100.871 49.771 104.24 53.3965 111.637 55.8501L115.226 57.0586C119.145 58.377 120.316 59.2192 120.316 60.8672C120.316 62.9912 118.302 64.3828 115.043 64.3828C110.978 64.3828 108.305 62.332 108.085 59.3657H96.1099C96.4028 67.5688 103.581 72.9521 114.677 72.9521C125.553 72.9521 132.768 67.5688 132.768 59.5122C132.768 54.1655 129.875 51.126 122.331 48.5991L118.083 47.2075C114.018 45.8525 112.846 44.937 112.846 43.1792C112.846 41.0918 114.86 39.7002 118.156 39.7002C121.598 39.7002 123.979 41.6045 124.162 44.3511H135.514C135.258 36.5874 128.263 31.2041 118.339 31.2041C107.755 31.2041 100.871 36.4043 100.871 44.2778ZM156.974 72.9155C167.118 72.9155 174.552 67.3125 176.64 59.146H164.848C163.932 61.9292 161.186 63.7969 157.523 63.7969C152.873 63.7969 150.053 60.5376 150.053 56.0332C150.053 55.6304 150.089 55.2275 150.163 54.8247H177.665C178.104 52.8838 178.288 50.3569 178.288 48.3062C178.288 37.9058 171.146 31.1675 160.636 31.1675C147.489 31.1675 138.664 41.3115 138.664 54.8247C138.664 66.0308 145.658 72.9155 156.974 72.9155ZM151.371 47.5737C152.433 43.2524 155.839 40.1763 160.087 40.1763C164.262 40.1763 166.715 42.9595 166.715 46.4385C166.715 46.8413 166.715 47.354 166.642 47.5737H151.371ZM214.03 72.5859C219.047 72.5859 223.148 70.4619 225.272 67.2759H225.529L224.503 72H236.735L242.155 46.4385C242.338 45.5962 242.484 44.2412 242.484 43.1792C242.484 36.0381 235.636 31.1675 225.529 31.1675C215.531 31.1675 208.28 36.2944 206.779 44.3511H218.314C219.083 41.8975 221.317 40.4692 224.613 40.4692C228.019 40.4692 230.143 41.9707 230.143 44.2778C230.143 44.644 230.143 44.9736 229.997 45.5962L229.521 47.9399L220.109 48.2329C209.013 48.5625 202.238 53.5796 202.238 61.7461C202.238 68.0083 207.365 72.5859 214.03 72.5859ZM219.633 63.8335C216.557 63.8335 214.433 62.2954 214.433 59.9517C214.433 57.2783 216.886 55.5205 220.731 55.374L227.982 55.1543L227.323 58.1206C226.627 61.4165 223.332 63.8335 219.633 63.8335ZM252.885 84.8906L257.206 64.6758H257.426C259 69.6562 263.249 72.5859 269.035 72.5859C280.387 72.5859 288.81 61.7827 288.81 47.0977C288.81 37.5029 283.646 31.5337 275.26 31.5337C270.243 31.5337 265.775 33.6943 262.846 37.8691H262.589L263.798 32.1196H251.53L240.324 84.8906H252.885ZM266.215 62.5518C262.223 62.5518 259.586 59.439 259.586 54.8613C259.586 47.6104 263.908 41.2383 269.364 41.2383C273.356 41.2383 275.883 44.3145 275.883 49.0752C275.883 56.6558 271.598 62.5518 266.215 62.5518ZM289.689 72H302.323L306.828 51.0161C308.109 45.1567 311.515 42.2637 316.715 42.2637C318.986 42.2637 320.854 42.813 322.465 43.582L324.882 32.5591C323.454 31.8999 321.806 31.5337 319.608 31.5337C315.141 31.5337 311.588 34.0972 309.611 37.7959H309.354L310.49 32.1196H298.258L289.689 72ZM368.168 32.1196H355.534L350.626 55.1543C349.674 59.7319 346.671 62.5884 342.606 62.5884C338.761 62.5884 336.674 60.5742 336.674 56.8022C336.674 55.9966 336.784 55.0078 336.93 54.1289L341.618 32.1196H329.02L323.93 56.1797C323.6 57.6812 323.417 59.6587 323.417 61.3433C323.417 68.2646 328.214 72.9521 335.868 72.9521C341.544 72.9521 346.305 70.0225 348.576 65.7012H348.832L347.477 72H359.708L368.168 32.1196ZM366.227 72H378.788L383.878 48.0132C384.757 43.7651 387.541 41.1284 390.836 41.1284C393.839 41.1284 395.707 43.2158 395.707 46.1821C395.707 47.061 395.597 47.9033 395.414 48.9287L390.58 72H402.592L407.646 48.0132C408.524 43.6919 411.308 41.1284 414.604 41.1284C417.606 41.1284 419.474 43.2158 419.474 46.1821C419.474 47.061 419.364 47.9033 419.181 48.9287L414.311 72H426.872L432.108 47.1343C432.438 45.4131 432.621 43.8018 432.621 42.3369C432.621 35.8184 427.97 31.1675 421.525 31.1675C415.629 31.1675 411.051 34.0972 408.195 38.272H407.938C406.693 34.0605 402.885 31.1675 397.831 31.1675C392.814 31.1675 388.2 34.0605 385.783 38.4551H385.526L386.881 32.1196H374.723L366.227 72ZM446.061 72.5859C451.078 72.5859 455.18 70.4619 457.304 67.2759H457.56L456.535 72H468.766L474.186 46.4385C474.369 45.5962 474.516 44.2412 474.516 43.1792C474.516 36.0381 467.667 31.1675 457.56 31.1675C447.562 31.1675 440.312 36.2944 438.81 44.3511H450.346C451.115 41.8975 453.349 40.4692 456.645 40.4692C460.05 40.4692 462.174 41.9707 462.174 44.2778C462.174 44.644 462.174 44.9736 462.028 45.5962L461.552 47.9399L452.14 48.2329C441.044 48.5625 434.269 53.5796 434.269 61.7461C434.269 68.0083 439.396 72.5859 446.061 72.5859ZM451.664 63.8335C448.588 63.8335 446.464 62.2954 446.464 59.9517C446.464 57.2783 448.917 55.5205 452.763 55.374L460.014 55.1543L459.354 58.1206C458.659 61.4165 455.363 63.8335 451.664 63.8335Z" fill="white"/>
<path d="M188.322 72.4761C192.094 72.4761 195.133 69.4365 195.133 65.6646C195.133 61.8926 192.094 58.853 188.322 58.853C184.55 58.853 181.547 61.8926 181.547 65.6646C181.547 69.4365 184.55 72.4761 188.322 72.4761Z" fill="#4CD62B"/>
<defs>
<clipPath id="clip0">
<rect width="360" height="76" fill="white" transform="translate(0 13)"/>
</clipPath>
</defs>
</svg>
